<svg xmlns="http://www.w3.org/2000/svg" width="79" height="17.03" viewBox="0 0 79 17.03"><title>список желаний</title><g id="a8d35850-c919-4258-8f32-f2807ad1d000" data-name="Layer 2"><g id="fcffad33-db1a-421b-8c84-2d9d1dfd355b" data-name="Layer 1"><g id="b41e3817-be63-48ab-b06b-63fbbff16912" data-name="Layer 1-2"><g id="e13d9902-8281-492c-a7af-e195e0368c53" data-name="Слой 2-2"><g id="ef343d57-2bd0-406e-b115-3265336dec3e" data-name="Слой 1-2-2"><path d="M79,5.78c0,2.43-1.17,4.81-3.49,7.09a24.85,24.85,0,0,1-5.7,4.06.84.84,0,0,1-.31.08.89.89,0,0,1-.32-.08,24.85,24.85,0,0,1-5.7-4.06C61.17,10.59,60,8.21,60,5.78V5.64A5.57,5.57,0,0,1,65.57.05a4.78,4.78,0,0,1,3.93,2,4.79,4.79,0,0,1,4-2h.08A5.59,5.59,0,0,1,79,5.78Z" fill="#fa2539"/></g></g><g id="afdef939-d41a-4afd-952d-094ed6d98034" data-name="Слой 2-2"><g id="a87ea293-30d0-46e2-af8b-fd360a1fd980" data-name="Слой 1-2-2"><path d="M43.48,1.22A4.41,4.41,0,0,1,47.8,5.71v.07c0,2.09-1,4.19-3.13,6.24a22.57,22.57,0,0,1-5.17,3.72A22.92,22.92,0,0,1,34.33,12c-2.08-2-3.13-4.13-3.13-6.23a4.41,4.41,0,0,1,4.26-4.56h.06a3.65,3.65,0,0,1,3,1.59l1,1.2,1-1.22a3.65,3.65,0,0,1,3-1.59m0-1.2a4.81,4.81,0,0,0-4,2.05,4.81,4.81,0,0,0-3.93-2A5.59,5.59,0,0,0,30,5.64v.14c0,2.43,1.17,4.81,3.48,7.09a24.55,24.55,0,0,0,5.7,4.06.72.72,0,0,0,.32.08.65.65,0,0,0,.31-.08,24.13,24.13,0,0,0,5.7-4.06C47.83,10.59,49,8.21,49,5.78A5.6,5.6,0,0,0,43.58,0H43.5Z" fill="#fa2539"/></g></g><g id="be7f19e0-da19-4dc9-b1df-e7168d61494f" data-name="Слой 2"><g id="b328cd57-8325-45d5-8192-46125733d385" data-name="Слой 1-2"><path d="M13.48,1.25a4.41,4.41,0,0,1,4.32,4.5h0v.06c0,2.09-1.05,4.2-3.13,6.25A23.19,23.19,0,0,1,9.5,15.78,23.08,23.08,0,0,1,4.33,12C2.25,10,1.2,7.91,1.2,5.81A4.4,4.4,0,0,1,5.45,1.26h.07a3.67,3.67,0,0,1,3,1.59L9.5,4l.95-1.22a3.67,3.67,0,0,1,3-1.59m0-1.19a4.82,4.82,0,0,0-4,2A4.84,4.84,0,0,0,5.52,0,5.57,5.57,0,0,0,0,5.63v.18c0,2.43,1.17,4.82,3.48,7.1a24.3,24.3,0,0,0,5.7,4,.63.63,0,0,0,.32.1.55.55,0,0,0,.31,0,24.3,24.3,0,0,0,5.7-4C17.83,10.63,19,8.24,19,5.81A5.59,5.59,0,0,0,13.58.06h-.13Z"/></g></g></g></g></g></svg>