<svg xmlns="http://www.w3.org/2000/svg" width="18"  height="16" viewBox="0 0 18 16"><g><g><path fill="#fb2539" d="M17.968 7.438c-.144.593-1.375 5.657-1.729 6.536-.18.446-.689 1.181-2.084 1.237-.017.002-.035.005-.053.005H8.51c-.673 0-1.636-.43-2.293-.77v.67c0 .207-.077.885-1.063.885H.95c-.88 0-.948-.678-.948-.885V6.762c0-.54.258-1.396.948-1.396h4.204c.628 0 .958.736 1.04 1.19l.122-.048L7.98 3.475c-.02-.574-.036-1.823.157-2.371C8.317.592 9.006.04 9.848 0c.552-.024 1.582.163 2.291 1.718.587 1.284.613 2.23.487 2.863h3.79c.227 0 .564.085.887.491.473.595.796 1.744.665 2.365zM5.017 6.762a.78.78 0 0 0-.065-.175H1.227a.913.913 0 0 0-.024.175v8.018h3.814zm11.323-.96h-4.552a.611.611 0 1 1-.447-1.015L11.3 4.75c.011-.015.551-.764-.248-2.516-.205-.45-.558-.99-1.075-1.012-.356-.014-.65.21-.713.306-.09.288-.11 1.29-.077 2.07l.008.172-2.04 3.716-.937.373v5.2c.687.402 1.81.938 2.293.938h5.477c.628 0 1.012-.163 1.14-.484.272-.674 1.298-4.81 1.67-6.348.05-.254-.226-1.144-.457-1.362z"/></g></g></svg>
